<svg width="40" height="40" viewBox="0 0 40 40" fill="none" xmlns="http://www.w3.org/2000/svg">
<rect width="40" height="40" rx="20" fill="#8A8585"/>
<path fill-rule="evenodd" clip-rule="evenodd" d="M29.8398 14.0564C29.8834 13.7917 29.8552 13.5202 29.7582 13.2701C29.6612 13.02 29.4989 12.8005 29.2883 12.6344C29.0776 12.4684 28.8262 12.3619 28.5604 12.326C28.2945 12.2901 28.0239 12.3262 27.7768 12.4304L10.6768 19.6304C9.48478 20.1324 9.42378 21.8564 10.6768 22.3764C11.9177 22.8934 13.1765 23.3664 14.4508 23.7944C15.6188 24.1804 16.8928 24.5374 17.9138 24.6384C18.1928 24.9724 18.5438 25.2944 18.9018 25.5884C19.4488 26.0384 20.1068 26.5014 20.7868 26.9454C22.1488 27.8354 23.6598 28.6864 24.6778 29.2404C25.8948 29.9004 27.3518 29.1404 27.5698 27.8134L29.8398 14.0564ZM12.5938 20.9934L27.7178 14.6254L25.5998 27.4654C24.6008 26.9224 23.1618 26.1094 21.8798 25.2714C21.2889 24.892 20.7185 24.4818 20.1708 24.0424C20.0244 23.9228 19.8823 23.7981 19.7448 23.6684L23.7058 19.7084C23.8934 19.5209 23.9989 19.2665 23.999 19.0013C23.9991 18.736 23.8938 18.4816 23.7063 18.2939C23.5188 18.1063 23.2644 18.0008 22.9991 18.0007C22.7339 18.0006 22.4794 18.1059 22.2918 18.2934L17.9548 22.6304C17.2208 22.5364 16.1988 22.2644 15.0768 21.8944C14.2415 21.6161 13.4139 21.3153 12.5948 20.9924L12.5938 20.9934Z" fill="white"/>
</svg>
